<svg xmlns="http://www.w3.org/2000/svg" width="225" height="225" viewBox="0 0 225 225">
<g>
<path d="M 165.81 164.75 L 168.24 168.00 L 143.37 167.98 L 118.50 167.96 L 108.00 151.86 C102.22,143.00 97.36,135.18 97.20,134.49 C97.03,133.79 105.74,122.94 116.56,110.36 C127.37,97.79 139.57,83.56 143.68,78.75 L 151.14 70.00 L 133.25 70.00 L 126.82 77.25 C118.98,86.10 49.01,165.12 47.84,166.45 C47.38,166.97 47.00,142.79 47.00,112.70 L 47.00 58.00 L 86.00 58.00 L 86.00 90.57 L 75.00 101.43 L 75.00 69.00 L 58.00 69.00 L 58.00 102.00 C58.00,120.15 58.34,135.00 58.75,135.00 C59.16,134.99 74.98,117.67 93.90,96.50 L 128.29 58.00 L 178.08 58.00 L 145.89 94.75 C128.19,114.96 113.10,132.21 112.35,133.09 C111.17,134.46 111.95,136.11 118.24,145.59 L 125.50 156.50 L 133.92 156.79 C145.11,157.18 145.87,156.84 142.78,152.74 C141.44,150.96 137.28,145.06 133.54,139.64 L 126.75 129.78 L 134.62 121.90 L 149.00 141.70 C156.91,152.59 164.47,162.96 165.81,164.75 Z" fill="rgb(9,125,178)"/>
<path d="M 0.00 0.00 L 221.20 0.00 L 112.75 0.25 L 0.50 0.50 L 0.25 112.75 L 0.00 221.20 Z" fill="rgb(84,155,186)"/>
<path d="M 0.00 225.00 L 0.00 221.20 L 0.50 0.50 L 112.75 0.25 L 221.20 0.00 L 225.00 0.00 L 225.00 225.00 ZM 1.00 1.00 L 1.00 224.00 L 224.00 224.00 L 224.00 1.00 Z" fill="rgb(191,199,202)"/>
<path d="M 1.00 112.50 L 1.00 1.00 L 112.50 1.00 L 224.00 1.00 L 224.00 112.50 L 224.00 224.00 L 112.50 224.00 L 1.00 224.00 L 1.00 112.50 ZM 165.81 164.75 C164.47,162.96 156.91,152.59 149.00,141.70 L 134.62 121.90 L 130.69 125.84 L 126.75 129.78 L 133.54 139.64 C137.28,145.06 141.44,150.96 142.78,152.74 C145.87,156.84 145.11,157.18 133.92,156.79 L 125.50 156.50 L 118.24 145.59 C111.95,136.11 111.17,134.46 112.35,133.09 C113.10,132.21 128.19,114.96 145.89,94.75 L 178.08 58.00 L 153.19 58.00 L 128.29 58.00 L 93.90 96.50 C74.98,117.67 59.16,134.99 58.75,135.00 C58.34,135.00 58.00,120.15 58.00,102.00 L 58.00 69.00 L 66.50 69.00 L 75.00 69.00 L 75.00 85.22 L 75.00 101.43 L 80.50 96.00 L 86.00 90.57 L 86.00 74.28 L 86.00 58.00 L 66.50 58.00 L 47.00 58.00 L 47.00 112.70 C47.00,142.79 47.38,166.97 47.84,166.45 C49.01,165.12 118.98,86.10 126.82,77.25 L 133.25 70.00 L 142.19 70.00 L 151.14 70.00 L 143.68 78.75 C139.57,83.56 127.37,97.79 116.56,110.36 C105.74,122.94 97.03,133.79 97.20,134.49 C97.36,135.18 102.22,143.00 108.00,151.86 L 118.50 167.96 L 143.37 167.98 L 168.24 168.00 L 165.81 164.75 Z" fill="rgb(253,254,254)"/>
</g>
</svg>